<?xml version="1.0" encoding="UTF-8" standalone="no"?>
<svg
   xmlns:dc="http://purl.org/dc/elements/1.1/"
   xmlns:cc="http://creativecommons.org/ns#"
   xmlns:rdf="http://www.w3.org/1999/02/22-rdf-syntax-ns#"
   xmlns:svg="http://www.w3.org/2000/svg"
   xmlns="http://www.w3.org/2000/svg"
   xmlns:sodipodi="http://sodipodi.sourceforge.net/DTD/sodipodi-0.dtd"
   xmlns:inkscape="http://www.inkscape.org/namespaces/inkscape"
   width="40"
   height="40"
   viewBox="0 0 40 40"
   version="1.1"
   id="svg3785"
   sodipodi:docname="logo.svg"
   style="fill:none"
   inkscape:version="0.92.4 (5da689c313, 2019-01-14)">
  <metadata
     id="metadata3789">
    <rdf:RDF>
      <cc:Work
         rdf:about="">
        <dc:format>image/svg+xml</dc:format>
        <dc:type
           rdf:resource="http://purl.org/dc/dcmitype/StillImage" />
        <dc:title></dc:title>
      </cc:Work>
    </rdf:RDF>
  </metadata>
  <sodipodi:namedview
     pagecolor="#ffffff"
     bordercolor="#666666"
     borderopacity="1"
     objecttolerance="10"
     gridtolerance="10"
     guidetolerance="10"
     inkscape:pageopacity="0"
     inkscape:pageshadow="2"
     inkscape:window-width="3840"
     inkscape:window-height="2035"
     id="namedview3787"
     showgrid="false"
     fit-margin-top="0"
     fit-margin-left="0"
     fit-margin-right="0"
     fit-margin-bottom="0"
     inkscape:zoom="17.40566"
     inkscape:cx="83.281826"
     inkscape:cy="18.538912"
     inkscape:window-x="-13"
     inkscape:window-y="-13"
     inkscape:window-maximized="1"
     inkscape:current-layer="svg3785" />
  <path
     d="m 19.9999,27.0589 c -0.6471,0 -1.1765,-0.5294 -1.1765,-1.1765 0,-4.5294 -3.7059,-8.2353 -8.2353,-8.2353 -0.64707,0 -1.17648,-0.5294 -1.17648,-1.1764 0,-0.6471 0.52941,-1.1765 1.17648,-1.1765 5.8529,0 10.5882,4.7353 10.5882,10.5882 0,0.6471 -0.5294,1.1765 -1.1764,1.1765 z"
     id="path3762"
     inkscape:connector-curvature="0"
     style="fill:url(#paint0_linear)" />
  <path
     d="m 30.5882,16.4707 c 0,0.647 -0.5294,1.1764 -1.1765,1.1764 -2.7941,0 -5.2941,1.4118 -6.7647,3.5589 -0.3235,-0.8236 -0.7059,-1.5883 -1.1765,-2.2942 1.9412,-2.2353 4.7941,-3.6176 7.9412,-3.6176 0.6471,0 1.1765,0.5294 1.1765,1.1765 z"
     id="path3764"
     inkscape:connector-curvature="0"
     style="fill:url(#paint1_linear)" />
  <path
     d="M 20,40 C 8.97059,40 0,31.0294 0,20 0,8.97059 8.97059,0 20,0 31.0294,0 40,8.97059 40,20 40,31.0294 31.0294,40 20,40 Z M 20,2.35294 C 10.2647,2.35294 2.35294,10.2647 2.35294,20 2.35294,29.7353 10.2647,37.6471 20,37.6471 29.7353,37.6471 37.6471,29.7353 37.6471,20 37.6471,10.2647 29.7353,2.35294 20,2.35294 Z"
     id="path3766"
     inkscape:connector-curvature="0"
     style="fill:url(#paint2_linear)" />
  <defs
     id="defs3783">
    <linearGradient
       id="paint0_linear"
       x1="15.294"
       y1="15.2942"
       x2="15.294"
       y2="27.058901"
       gradientUnits="userSpaceOnUse">
      <stop
         stop-color="#BC9CFF"
         id="stop3768" />
      <stop
         offset="1"
         stop-color="#8BA4F9"
         id="stop3770" />
    </linearGradient>
    <linearGradient
       id="paint1_linear"
       x1="26.029301"
       y1="15.2942"
       x2="26.029301"
       y2="21.205999"
       gradientUnits="userSpaceOnUse">
      <stop
         stop-color="#6FCF97"
         id="stop3773" />
      <stop
         offset="1"
         stop-color="#66D2EA"
         id="stop3775" />
    </linearGradient>
    <linearGradient
       id="paint2_linear"
       x1="20"
       y1="0"
       x2="20"
       y2="40"
       gradientUnits="userSpaceOnUse">
      <stop
         stop-color="#BC9CFF"
         id="stop3778" />
      <stop
         offset="1"
         stop-color="#8BA4F9"
         id="stop3780" />
    </linearGradient>
  </defs>
</svg>
